<svg width="1436" height="96" viewBox="0 0 1436 96" fill="none" xmlns="http://www.w3.org/2000/svg">
<g clip-path="url(#clip0)">
<path fill-rule="evenodd" clip-rule="evenodd" d="M1439.2 161.88L-0.503555 191.205L-3.20364 58.6414C-3.20364 58.6414 275.893 68.6162 425.442 64.1209C722.752 55.184 755.488 42.2542 1017.29 35.0449C1257.9 28.4193 1436.7 39.0795 1436.7 39.0795L1439.2 161.88Z" fill="#1F6107" fill-opacity="0.89"/>
<path fill-rule="evenodd" clip-rule="evenodd" d="M1438.83 193.148L-0.881989 221.757L-3.93203 68.2677C-3.93203 68.2677 275.209 80.852 424.756 76.2023C722.06 66.9584 754.765 52.1101 1016.57 44.7346C1257.17 37.9565 1436.01 50.9622 1436.01 50.9622L1438.83 193.148Z" fill="url(#paint0_linear)"/>
<path fill-rule="evenodd" clip-rule="evenodd" d="M1438.81 186.656L-0.904938 215.265L-3.58071 80.6096C-3.58071 80.6096 275.516 90.9699 425.067 86.526C722.38 77.6914 755.119 64.5846 1016.93 57.4757C1257.53 50.9425 1436.33 61.917 1436.33 61.917L1438.81 186.656Z" fill="url(#paint1_linear)"/>
</g>
<defs>
<linearGradient id="paint0_linear" x1="718.976" y1="207.453" x2="715.858" y2="50.543" gradientUnits="userSpaceOnUse">
<stop offset="0.9999" stop-color="#FC0505" stop-opacity="0.71"/>
<stop offset="1" stop-color="white" stop-opacity="0"/>
</linearGradient>
<linearGradient id="paint1_linear" x1="718.953" y1="200.96" x2="716.218" y2="63.3045" gradientUnits="userSpaceOnUse">
<stop offset="0.9999" stop-color="#071141"/>
<stop offset="1" stop-color="white" stop-opacity="0"/>
</linearGradient>
<clipPath id="clip0">
<rect width="1436" height="95.9999" fill="white" transform="translate(0 0.00012207)"/>
</clipPath>
</defs>
</svg>
