<svg width="1422" height="95" viewBox="0 0 1422 95" fill="none" xmlns="http://www.w3.org/2000/svg">
<g clip-path="url(#clip0)">
<path fill-rule="evenodd" clip-rule="evenodd" d="M1439.2 -66.8802L-0.503555 -96.2045L-3.20364 36.3587C-3.20364 36.3587 275.893 26.3839 425.442 30.8793C722.752 39.8162 755.488 52.7459 1017.29 59.9553C1257.9 66.5808 1436.7 55.9206 1436.7 55.9206L1439.2 -66.8802Z" fill="#1F6107" fill-opacity="0.89"/>
<path fill-rule="evenodd" clip-rule="evenodd" d="M1438.83 -98.1483L-0.881989 -126.757L-3.93203 26.7324C-3.93203 26.7324 275.209 14.1482 424.756 18.7979C722.06 28.0417 754.765 42.89 1016.57 50.2655C1257.17 57.0437 1436.01 44.038 1436.01 44.038L1438.83 -98.1483Z" fill="url(#paint0_linear)"/>
<path fill-rule="evenodd" clip-rule="evenodd" d="M1438.81 -91.6556L-0.904938 -120.265L-3.58071 14.3905C-3.58071 14.3905 275.516 4.03027 425.067 8.47414C722.38 17.3088 755.119 30.4155 1016.93 37.5244C1257.53 44.0576 1436.33 33.0831 1436.33 33.0831L1438.81 -91.6556Z" fill="url(#paint1_linear)"/>
</g>
<defs>
<linearGradient id="paint0_linear" x1="718.976" y1="-112.453" x2="715.858" y2="44.4571" gradientUnits="userSpaceOnUse">
<stop offset="0.9999" stop-color="#FC0505" stop-opacity="0.71"/>
<stop offset="1" stop-color="white" stop-opacity="0"/>
</linearGradient>
<linearGradient id="paint1_linear" x1="718.953" y1="-105.96" x2="716.218" y2="31.6956" gradientUnits="userSpaceOnUse">
<stop offset="0.9999" stop-color="#071141"/>
<stop offset="1" stop-color="white" stop-opacity="0"/>
</linearGradient>
<clipPath id="clip0">
<rect width="1422" height="95" fill="white" transform="matrix(1 0 0 -1 0 95)"/>
</clipPath>
</defs>
</svg>
